<svg width="271" height="339" viewBox="0 0 271 339" fill="none" xmlns="http://www.w3.org/2000/svg">
<path d="M223.242 134L178 200.908" stroke="white" stroke-width="6" stroke-linecap="round"/>
<path d="M223.218 134.144L267.832 201.051" stroke="white" stroke-width="6" stroke-linecap="round"/>
<path d="M223.46 217.144L178.218 284.051" stroke="white" stroke-width="6" stroke-linecap="round"/>
<line x1="223" y1="105.999" x2="223.02" y2="218.15" stroke="white" stroke-width="6"/>
<path d="M223.069 54C237.677 54 249.52 65.8421 249.521 80.4502C249.521 95.0584 237.678 106.901 223.069 106.901C208.461 106.901 196.619 95.0583 196.619 80.4502C196.619 65.8422 208.461 54.0002 223.069 54Z" stroke="white" stroke-width="6"/>
<line x1="222.5" y1="55.9948" x2="223.036" y2="4.36461" stroke="white"/>
<path d="M226.26 3L53.7735 4.43142" stroke="white" stroke-width="6" stroke-linecap="round"/>
<path d="M53.7734 4.42285L55.2111 335.081" stroke="white" stroke-width="6" stroke-linecap="round"/>
<path d="M3 334.49H102.995" stroke="white" stroke-width="6" stroke-linecap="round"/>
<path d="M54 49L122 4" stroke="white" stroke-width="6" stroke-linecap="round"/>
</svg>
