<svg id="visual" viewBox="0 0 960 540" width="960" height="540" xmlns="http://www.w3.org/2000/svg" xmlns:xlink="http://www.w3.org/1999/xlink" version="1.1"><rect x="0" y="0" width="960" height="540" fill="#070707"></rect><defs><linearGradient id="grad1_0" x1="43.8%" y1="0%" x2="100%" y2="100%"><stop offset="14.444444444444446%" stop-color="#78cec1" stop-opacity="1"></stop><stop offset="85.55555555555554%" stop-color="#78cec1" stop-opacity="1"></stop></linearGradient></defs><defs><linearGradient id="grad1_1" x1="43.8%" y1="0%" x2="100%" y2="100%"><stop offset="14.444444444444446%" stop-color="#78cec1" stop-opacity="1"></stop><stop offset="85.55555555555554%" stop-color="#67aea4" stop-opacity="1"></stop></linearGradient></defs><defs><linearGradient id="grad1_2" x1="43.8%" y1="0%" x2="100%" y2="100%"><stop offset="14.444444444444446%" stop-color="#579087" stop-opacity="1"></stop><stop offset="85.55555555555554%" stop-color="#67aea4" stop-opacity="1"></stop></linearGradient></defs><defs><linearGradient id="grad1_3" x1="43.8%" y1="0%" x2="100%" y2="100%"><stop offset="14.444444444444446%" stop-color="#579087" stop-opacity="1"></stop><stop offset="85.55555555555554%" stop-color="#47726c" stop-opacity="1"></stop></linearGradient></defs><defs><linearGradient id="grad1_4" x1="43.8%" y1="0%" x2="100%" y2="100%"><stop offset="14.444444444444446%" stop-color="#385651" stop-opacity="1"></stop><stop offset="85.55555555555554%" stop-color="#47726c" stop-opacity="1"></stop></linearGradient></defs><defs><linearGradient id="grad1_5" x1="43.8%" y1="0%" x2="100%" y2="100%"><stop offset="14.444444444444446%" stop-color="#385651" stop-opacity="1"></stop><stop offset="85.55555555555554%" stop-color="#293b38" stop-opacity="1"></stop></linearGradient></defs><defs><linearGradient id="grad1_6" x1="43.8%" y1="0%" x2="100%" y2="100%"><stop offset="14.444444444444446%" stop-color="#1a2321" stop-opacity="1"></stop><stop offset="85.55555555555554%" stop-color="#293b38" stop-opacity="1"></stop></linearGradient></defs><defs><linearGradient id="grad1_7" x1="43.8%" y1="0%" x2="100%" y2="100%"><stop offset="14.444444444444446%" stop-color="#1a2321" stop-opacity="1"></stop><stop offset="85.55555555555554%" stop-color="#070707" stop-opacity="1"></stop></linearGradient></defs><defs><linearGradient id="grad2_0" x1="0%" y1="0%" x2="56.3%" y2="100%"><stop offset="14.444444444444446%" stop-color="#78cec1" stop-opacity="1"></stop><stop offset="85.55555555555554%" stop-color="#78cec1" stop-opacity="1"></stop></linearGradient></defs><defs><linearGradient id="grad2_1" x1="0%" y1="0%" x2="56.3%" y2="100%"><stop offset="14.444444444444446%" stop-color="#67aea4" stop-opacity="1"></stop><stop offset="85.55555555555554%" stop-color="#78cec1" stop-opacity="1"></stop></linearGradient></defs><defs><linearGradient id="grad2_2" x1="0%" y1="0%" x2="56.3%" y2="100%"><stop offset="14.444444444444446%" stop-color="#67aea4" stop-opacity="1"></stop><stop offset="85.55555555555554%" stop-color="#579087" stop-opacity="1"></stop></linearGradient></defs><defs><linearGradient id="grad2_3" x1="0%" y1="0%" x2="56.3%" y2="100%"><stop offset="14.444444444444446%" stop-color="#47726c" stop-opacity="1"></stop><stop offset="85.55555555555554%" stop-color="#579087" stop-opacity="1"></stop></linearGradient></defs><defs><linearGradient id="grad2_4" x1="0%" y1="0%" x2="56.3%" y2="100%"><stop offset="14.444444444444446%" stop-color="#47726c" stop-opacity="1"></stop><stop offset="85.55555555555554%" stop-color="#385651" stop-opacity="1"></stop></linearGradient></defs><defs><linearGradient id="grad2_5" x1="0%" y1="0%" x2="56.3%" y2="100%"><stop offset="14.444444444444446%" stop-color="#293b38" stop-opacity="1"></stop><stop offset="85.55555555555554%" stop-color="#385651" stop-opacity="1"></stop></linearGradient></defs><defs><linearGradient id="grad2_6" x1="0%" y1="0%" x2="56.3%" y2="100%"><stop offset="14.444444444444446%" stop-color="#293b38" stop-opacity="1"></stop><stop offset="85.55555555555554%" stop-color="#1a2321" stop-opacity="1"></stop></linearGradient></defs><defs><linearGradient id="grad2_7" x1="0%" y1="0%" x2="56.3%" y2="100%"><stop offset="14.444444444444446%" stop-color="#070707" stop-opacity="1"></stop><stop offset="85.55555555555554%" stop-color="#1a2321" stop-opacity="1"></stop></linearGradient></defs><g transform="translate(960, 0)"><path d="M0 540C-36.5 535.2 -73.1 530.4 -100.9 507.1C-128.7 483.7 -147.7 441.9 -176.8 426.8C-205.9 411.8 -245 423.4 -280.6 419.9C-316.1 416.4 -348 397.6 -372.6 372.6C-397.3 347.7 -414.8 316.6 -426.5 285C-438.3 253.4 -444.2 221.4 -463.8 192.1C-483.4 162.8 -516.7 136.1 -525.7 104.6C-534.7 73 -519.3 36.5 -504 0L0 0Z" fill="#131716"></path><path d="M0 472.5C-32 468.3 -63.9 464.1 -88.3 443.7C-112.6 423.3 -129.2 386.7 -154.7 373.5C-180.2 360.3 -214.4 370.5 -245.5 367.4C-276.6 364.3 -304.5 347.9 -326.1 326.1C-347.7 304.2 -363 277 -373.2 249.4C-383.5 221.8 -388.7 193.8 -405.8 168.1C-423 142.4 -452.1 119.1 -460 91.5C-467.9 63.9 -454.4 31.9 -441 0L0 0Z" fill="#212f2c"></path><path d="M0 405C-27.4 401.4 -54.8 397.8 -75.6 380.3C-96.5 362.8 -110.8 331.4 -132.6 320.1C-154.4 308.8 -183.8 317.6 -210.4 314.9C-237.1 312.3 -261 298.2 -279.5 279.5C-298 260.8 -311.1 237.4 -319.9 213.8C-328.7 190.1 -333.1 166.1 -347.8 144.1C-362.6 122.1 -387.5 102.1 -394.3 78.4C-401 54.7 -389.5 27.4 -378 0L0 0Z" fill="#304945"></path><path d="M0 337.5C-22.8 334.5 -45.7 331.5 -63 316.9C-80.4 302.3 -92.3 276.2 -110.5 266.8C-128.7 257.3 -153.2 264.6 -175.4 262.4C-197.5 260.2 -217.5 248.5 -232.9 232.9C-248.3 217.3 -259.3 197.9 -266.6 178.1C-273.9 158.4 -277.6 138.4 -289.9 120.1C-302.1 101.7 -322.9 85.1 -328.6 65.4C-334.2 45.6 -324.6 22.8 -315 0L0 0Z" fill="#3f645e"></path><path d="M0 270C-18.3 267.6 -36.5 265.2 -50.4 253.5C-64.3 241.9 -73.9 221 -88.4 213.4C-102.9 205.9 -122.5 211.7 -140.3 209.9C-158 208.2 -174 198.8 -186.3 186.3C-198.7 173.9 -207.4 158.3 -213.3 142.5C-219.1 126.7 -222.1 110.7 -231.9 96.1C-241.7 81.4 -258.4 68.1 -262.9 52.3C-267.3 36.5 -259.7 18.2 -252 0L0 0Z" fill="#4f8179"></path><path d="M0 202.5C-13.7 200.7 -27.4 198.9 -37.8 190.1C-48.2 181.4 -55.4 165.7 -66.3 160.1C-77.2 154.4 -91.9 158.8 -105.2 157.5C-118.5 156.1 -130.5 149.1 -139.7 139.7C-149 130.4 -155.6 118.7 -160 106.9C-164.3 95 -166.6 83 -173.9 72C-181.3 61 -193.8 51.1 -197.1 39.2C-200.5 27.4 -194.8 13.7 -189 0L0 0Z" fill="#5f9f95"></path><path d="M0 135C-9.1 133.8 -18.3 132.6 -25.2 126.8C-32.2 120.9 -36.9 110.5 -44.2 106.7C-51.5 102.9 -61.3 105.9 -70.1 105C-79 104.1 -87 99.4 -93.2 93.2C-99.3 86.9 -103.7 79.1 -106.6 71.3C-109.6 63.4 -111 55.4 -115.9 48C-120.9 40.7 -129.2 34 -131.4 26.1C-133.7 18.2 -129.8 9.1 -126 0L0 0Z" fill="#70beb2"></path><path d="M0 67.5C-4.6 66.9 -9.1 66.3 -12.6 63.4C-16.1 60.5 -18.5 55.2 -22.1 53.4C-25.7 51.5 -30.6 52.9 -35.1 52.5C-39.5 52 -43.5 49.7 -46.6 46.6C-49.7 43.5 -51.9 39.6 -53.3 35.6C-54.8 31.7 -55.5 27.7 -58 24C-60.4 20.3 -64.6 17 -65.7 13.1C-66.8 9.1 -64.9 4.6 -63 0L0 0Z" fill="#78cec1"></path></g><g transform="translate(0, 540)"><path d="M0 -486C36.2 -509.1 72.4 -532.1 105.3 -529.6C138.3 -527.1 168.1 -499 199.4 -481.3C230.7 -463.7 263.5 -456.5 295 -441.5C326.6 -426.5 356.9 -403.7 370.5 -370.5C384.2 -337.3 381.1 -293.8 394.9 -263.9C408.8 -234 439.5 -217.7 467.5 -193.6C495.4 -169.6 520.6 -137.7 523.7 -104.2C526.9 -70.6 507.9 -35.3 489 0L0 0Z" fill="#131716"></path><path d="M0 -425.2C31.7 -445.4 63.3 -465.6 92.2 -463.4C121 -461.2 147.1 -436.6 174.5 -421.2C201.8 -405.7 230.5 -399.4 258.1 -386.3C285.7 -373.2 312.3 -353.2 324.2 -324.2C336.1 -295.2 333.5 -257.1 345.6 -230.9C357.7 -204.7 384.6 -190.5 409 -169.4C433.5 -148.4 455.5 -120.5 458.3 -91.2C461 -61.8 444.4 -30.9 427.9 0L0 0Z" fill="#212f2c"></path><path d="M0 -364.5C27.1 -381.8 54.3 -399.1 79 -397.2C103.7 -395.3 126.1 -374.2 149.5 -361C173 -347.8 197.6 -342.4 221.3 -331.1C244.9 -319.9 267.7 -302.8 277.9 -277.9C288.1 -253 285.8 -220.4 296.2 -197.9C306.6 -175.5 329.6 -163.3 350.6 -145.2C371.6 -127.2 390.5 -103.3 392.8 -78.1C395.1 -53 380.9 -26.5 366.8 0L0 0Z" fill="#304945"></path><path d="M0 -303.7C22.6 -318.2 45.2 -332.6 65.8 -331C86.5 -329.4 105.1 -311.9 124.6 -300.8C144.2 -289.8 164.7 -285.3 184.4 -275.9C204.1 -266.6 223.1 -252.3 231.6 -231.6C240.1 -210.8 238.2 -183.6 246.8 -164.9C255.5 -146.2 274.7 -136.1 292.2 -121C309.6 -106 325.4 -86.1 327.3 -65.1C329.3 -44.1 317.5 -22.1 305.6 0L0 0Z" fill="#3f645e"></path><path d="M0 -243C18.1 -254.5 36.2 -266.1 52.7 -264.8C69.2 -263.6 84 -249.5 99.7 -240.7C115.3 -231.8 131.7 -228.3 147.5 -220.8C163.3 -213.3 178.4 -201.8 185.3 -185.3C192.1 -168.7 190.6 -146.9 197.5 -131.9C204.4 -117 219.8 -108.8 233.7 -96.8C247.7 -84.8 260.3 -68.9 261.9 -52.1C263.4 -35.3 254 -17.7 244.5 0L0 0Z" fill="#4f8179"></path><path d="M0 -182.2C13.6 -190.9 27.1 -199.6 39.5 -198.6C51.9 -197.7 63 -187.1 74.8 -180.5C86.5 -173.9 98.8 -171.2 110.6 -165.6C122.5 -159.9 133.8 -151.4 138.9 -138.9C144.1 -126.5 142.9 -110.2 148.1 -99C153.3 -87.7 164.8 -81.6 175.3 -72.6C185.8 -63.6 195.2 -51.7 196.4 -39.1C197.6 -26.5 190.5 -13.2 183.4 0L0 0Z" fill="#5f9f95"></path><path d="M0 -121.5C9 -127.3 18.1 -133 26.3 -132.4C34.6 -131.8 42 -124.7 49.8 -120.3C57.7 -115.9 65.9 -114.1 73.8 -110.4C81.6 -106.6 89.2 -100.9 92.6 -92.6C96 -84.3 95.3 -73.5 98.7 -66C102.2 -58.5 109.9 -54.4 116.9 -48.4C123.9 -42.4 130.2 -34.4 130.9 -26C131.7 -17.7 127 -8.8 122.3 0L0 0Z" fill="#70beb2"></path><path d="M0 -60.7C4.5 -63.6 9 -66.5 13.2 -66.2C17.3 -65.9 21 -62.4 24.9 -60.2C28.8 -58 32.9 -57.1 36.9 -55.2C40.8 -53.3 44.6 -50.5 46.3 -46.3C48 -42.2 47.6 -36.7 49.4 -33C51.1 -29.2 54.9 -27.2 58.4 -24.2C61.9 -21.2 65.1 -17.2 65.5 -13C65.9 -8.8 63.5 -4.4 61.1 0L0 0Z" fill="#78cec1"></path></g></svg>